<svg width="250" height="250" viewBox="0 0 250 250" fill="none" xmlns="http://www.w3.org/2000/svg">
<rect width="250" height="250" fill="white"/>
<g clip-path="url(#clip0_1_2)">
<path d="M110.79 69.2112C126.704 64.3755 144.249 67.5872 156.9 77.7372C166.948 85.7702 172.763 97.2107 173.227 109.202L173.249 110.739L173.909 110.761C190.584 111.537 203.945 124.978 204.721 141.718L204.75 143.248C204.75 160.699 191.084 174.945 173.901 175.743L172.379 175.779H86.2633L84.6537 175.721C63.3387 174.923 46.1055 158.328 45.2862 137.564L45.25 135.998C45.25 116.082 60.33 99.6758 79.934 96.725L80.7605 96.609L81.268 95.2967C86.0747 83.5517 96.174 74.2282 109.028 69.7912L110.797 69.2112H110.79Z" fill="black"/>
</g>
<defs>
<clipPath id="clip0_1_2">
<rect width="174" height="174" fill="white" transform="translate(38 38)"/>
</clipPath>
</defs>
</svg>
